<svg id="Capa_1" data-name="Capa 1" xmlns="http://www.w3.org/2000/svg" xmlns:xlink="http://www.w3.org/1999/xlink" viewBox="0 0 1100 536.91"><defs><style>.cls-1{fill:none;}.cls-2{clip-path:url(#clip-path);}.cls-3{fill:#1d1e1b;}</style><clipPath id="clip-path"><rect class="cls-1" width="1100" height="404.5"/></clipPath></defs><title>joinlife-small-double-vMesa de trabajo 1</title><g class="cls-2"><path class="cls-3" d="M1053.24,346.15h3c.88,0,1.62-.35,1.62-1.45,0-1.62-1.23-1.65-2.56-1.65h-18.64v-4.54h17.71c1.65,0,4-.12,5.56,1.33s1.59,3.33,1.59,5.54A5.41,5.41,0,0,1,1059,350c-.88.55-3.56.77-5.8.64Z"/><path class="cls-3" d="M1046.87,334.6c-6.18-.2-10.78-.68-10.78-7.93s4.6-7.74,10.78-7.93h3.46c6.47,0,11.2.48,11.2,7.93s-4.73,7.93-11.2,7.93Zm5.73-4.66c2,0,5.27-.16,5.27-3.27s-3.33-3.27-5.66-3.27H1046c-1.94,0-6.24-.1-6.24,3.27,0,3.56,4.24,3.27,6.11,3.27Z"/><rect class="cls-3" x="1036.67" y="310.03" width="24.27" height="4.53"/><path class="cls-3" d="M1036.67,294.75v-4.53h24.27V295l-8.64,3.53a83.29,83.29,0,0,1-9.64,3.23v.07c2-.17,4.47-.36,6.93-.49s4.85-.22,6.79-.22h4.56v4.53h-24.27v-4.7l8.84-3.52a79.85,79.85,0,0,1,9.64-3.24v-.07c-2.2.17-4.56.33-6.89.46s-4.66.22-6.83.22Z"/><polygon class="cls-3" points="1060.95 277.73 1036.67 277.73 1036.67 273.2 1057.38 273.2 1057.38 264.78 1060.95 264.78 1060.95 277.73"/><rect class="cls-3" x="1036.67" y="256.98" width="24.27" height="4.53"/><polygon class="cls-3" points="1060.95 252.38 1036.67 252.38 1036.67 239.53 1040.23 239.53 1040.23 247.85 1046.38 247.85 1046.38 240.05 1049.94 240.05 1049.94 247.85 1060.95 247.85 1060.95 252.38"/><polygon class="cls-3" points="1060.95 236.49 1036.67 236.49 1036.67 223.74 1040.23 223.74 1040.23 231.96 1046.35 231.96 1046.35 224.39 1049.91 224.39 1049.91 231.96 1057.38 231.96 1057.38 223.74 1060.95 223.74 1060.95 236.49"/><path class="cls-3" d="M1049,195c-1.68-.48-3,.15-3,1.94a3.23,3.23,0,0,0,2.89,3.52,1.7,1.7,0,0,0,2.2-1.06c.32-.8.65-1.58,1-2.37,1.14-2.83,2.22-3.15,4.36-2.7a5.86,5.86,0,0,1,4.85,6.06c0,1.6-.45,3.39-2.56,3.89a8.7,8.7,0,0,1-3-.31V202.2c2.39.61,3.91.48,3.91-2.22a3.5,3.5,0,0,0-2.83-3.69c-2.46-.52-2.48.48-3.11,2a27,27,0,0,1-1.25,2.92c-.78,1.36-2.07,1.49-3.67,1.14a5.5,5.5,0,0,1-4.42-5.46c0-2.95,1.53-4.44,4.57-3.62Z"/><path class="cls-3" d="M1044.76,189v-1.79l11.63,2.46c1.28.3,3.33.51,3.33-2.36s-2-3.51-3.33-3.77l-11.63-2.46v-1.79l12.28,2.61c2.89.6,4.29,2.83,4.29,5.76s-1.4,4.55-4.29,3.95Z"/><path class="cls-3" d="M1049,169.83c-1.68-.47-3,.16-3,1.95a3.22,3.22,0,0,0,2.89,3.51,1.69,1.69,0,0,0,2.2-1c.32-.8.65-1.58,1-2.38,1.14-2.82,2.22-3.15,4.36-2.69a5.84,5.84,0,0,1,4.85,6.06c0,1.6-.45,3.39-2.56,3.88a8.68,8.68,0,0,1-3-.3V177c2.39.6,3.91.47,3.91-2.22a3.49,3.49,0,0,0-2.83-3.69c-2.46-.52-2.48.47-3.11,2a26,26,0,0,1-1.25,2.91c-.78,1.36-2.07,1.49-3.67,1.15a5.5,5.5,0,0,1-4.42-5.46c0-3,1.53-4.45,4.57-3.63Z"/><polygon class="cls-3" points="1044.76 165.26 1044.76 155.1 1046.38 155.44 1046.38 159.63 1060.95 162.71 1060.95 164.5 1046.38 161.42 1046.38 165.6 1044.76 165.26"/><path class="cls-3" d="M1044.76,151.13v-2.38l16.19-1.12v2l-4.66.28V155l4.66,2.18v2Zm1.3-.91v0l8.61,4V150Z"/><polygon class="cls-3" points="1060.95 145.3 1044.76 141.87 1044.76 140.08 1060.95 143.51 1060.95 145.3"/><path class="cls-3" d="M1044.76,128.25v-1.79l16.19,3.43v2.94l-13,1.77a11.15,11.15,0,0,1-2.44.08v0l2.48.49L1061,138v1.79l-16.19-3.43v-2.91l13.25-1.79a14.17,14.17,0,0,1,1.77-.17v0c-.58-.1-1.21-.21-1.81-.34Z"/><path class="cls-3" d="M1044.76,120v-2.38l16.19-1.12v2l-4.66.28v5.11L1061,126v2Zm1.3-.91v0l8.61,4v-4.27Z"/><path class="cls-3" d="M1061,114.51l-16.19-3.43v-4.62c-.08-3,1.6-3.71,4-3.28a4.1,4.1,0,0,1,3.56,3.17l0,0c.26-2.09,1.81-2.41,3.8-2,3.21.67,4.9,2.78,4.77,5.86Zm-1.62-5c0-1.94-.93-2.84-3-3.3-3.2-.69-3,1.43-3,3.26v1.6l6,1.27Zm-7.64,1.21v-1.59c.11-2.16-.28-3.52-2.76-4-2-.43-2.59.18-2.55,2.92v1.57Z"/><polygon class="cls-3" points="1060.95 102.12 1044.76 98.69 1044.76 96.9 1060.95 100.33 1060.95 102.12"/><polygon class="cls-3" points="1060.95 96.45 1044.76 93.02 1044.76 91.22 1059.33 94.31 1059.33 87.71 1060.95 88.05 1060.95 96.45"/><polygon class="cls-3" points="1060.95 85.33 1044.76 81.9 1044.76 80.11 1060.95 83.54 1060.95 85.33"/><polygon class="cls-3" points="1044.76 77.69 1044.76 67.53 1046.38 67.88 1046.38 72.06 1060.95 75.15 1060.95 76.94 1046.38 73.85 1046.38 78.04 1044.76 77.69"/><polygon class="cls-3" points="1052.88 62.96 1044.76 57.43 1044.76 55.45 1054.67 62.44 1060.95 63.78 1060.95 65.57 1054.67 64.23 1044.76 66.99 1044.76 65.01 1052.88 62.96"/></g></svg>