<?xml version="1.0" encoding="iso-8859-1"?>
<!-- Generator: Adobe Illustrator 22.0.1, SVG Export Plug-In . SVG Version: 6.00 Build 0)  -->
<svg version="1.1" id="Capa_1" xmlns="http://www.w3.org/2000/svg" xmlns:xlink="http://www.w3.org/1999/xlink" x="0px" y="0px"
	 viewBox="0 0 73.376 4.643" style="enable-background:new 0 0 73.376 4.643;" xml:space="preserve">
<path style="fill:#FFFFFF;" d="M0,1.248v2.401h0.408V2.247c0-0.218,0.049-0.39,0.146-0.516c0.098-0.126,0.23-0.19,0.396-0.19
	c0.144,0,0.255,0.047,0.334,0.142c0.078,0.094,0.118,0.23,0.118,0.406v1.56H1.81V2.228c0-0.218,0.047-0.386,0.142-0.506
	c0.094-0.12,0.226-0.18,0.396-0.18c0.304,0,0.456,0.189,0.456,0.566v1.541h0.408V2.074c0-0.282-0.064-0.501-0.192-0.658
	C2.892,1.259,2.713,1.181,2.482,1.181c-0.326,0-0.57,0.163-0.73,0.49c-0.054-0.16-0.14-0.282-0.257-0.365
	C1.379,1.223,1.237,1.181,1.071,1.181c-0.323,0-0.552,0.162-0.687,0.485V1.248H0z"/>
<path style="fill:#FFFFFF;" d="M4.576,3.706c0.195,0,0.365-0.044,0.509-0.132c0.144-0.088,0.243-0.209,0.298-0.362
	C5.389,3.369,5.401,3.514,5.42,3.649h0.427C5.793,3.473,5.766,3.202,5.766,2.838V2.189c0-0.349-0.075-0.603-0.226-0.761
	C5.39,1.27,5.15,1.191,4.82,1.191c-0.282,0-0.511,0.074-0.689,0.221c-0.178,0.147-0.275,0.344-0.29,0.591h0.437
	c0.009-0.15,0.062-0.267,0.158-0.351c0.096-0.083,0.226-0.125,0.389-0.125c0.186,0,0.32,0.048,0.403,0.144
	c0.083,0.096,0.125,0.255,0.125,0.475v0.038L4.907,2.237c-0.195,0.023-0.355,0.05-0.48,0.082C4.302,2.351,4.193,2.389,4.1,2.434
	c-0.109,0.061-0.192,0.14-0.25,0.238C3.793,2.769,3.764,2.879,3.764,3.001c0,0.214,0.074,0.386,0.221,0.514
	C4.132,3.642,4.329,3.706,4.576,3.706L4.576,3.706z M4.667,3.37c-0.147,0-0.262-0.033-0.346-0.101
	C4.238,3.202,4.196,3.11,4.196,2.991c0-0.118,0.041-0.21,0.122-0.276C4.4,2.649,4.529,2.604,4.705,2.578l0.653-0.096v0.12
	c0,0.234-0.063,0.42-0.19,0.559C5.042,3.301,4.875,3.37,4.667,3.37L4.667,3.37z"/>
<path style="fill:#FFFFFF;" d="M6.544,3.649h0.408V2.396c0-0.266,0.058-0.474,0.173-0.627s0.272-0.228,0.47-0.228
	c0.352,0,0.528,0.213,0.528,0.639v1.469h0.408V2.155c0-0.32-0.067-0.562-0.202-0.727c-0.134-0.165-0.334-0.247-0.6-0.247
	c-0.378,0-0.645,0.181-0.802,0.543V1.248H6.544V3.649z"/>
<path style="fill:#FFFFFF;" d="M10.687,4.211L12.041,0h-0.379l-1.354,4.211H10.687z"/>
<path style="fill:#FFFFFF;" d="M14.749,3.73c0.243,0,0.454-0.045,0.634-0.135c0.179-0.089,0.315-0.214,0.408-0.374
	c0.093-0.16,0.139-0.344,0.139-0.552c0-0.256-0.056-0.463-0.168-0.619c-0.112-0.157-0.295-0.279-0.547-0.365l-0.49-0.163
	c-0.263-0.09-0.394-0.238-0.394-0.447c0-0.109,0.037-0.196,0.11-0.262c0.074-0.065,0.173-0.098,0.298-0.098
	c0.15,0,0.278,0.05,0.384,0.151c0.106,0.101,0.182,0.254,0.23,0.458l0.605-0.302c-0.131-0.576-0.528-0.864-1.191-0.864
	c-0.343,0-0.619,0.089-0.831,0.266c-0.211,0.178-0.317,0.42-0.317,0.727c0,0.243,0.059,0.449,0.178,0.617
	c0.118,0.168,0.296,0.29,0.533,0.367l0.49,0.154c0.138,0.042,0.234,0.098,0.29,0.168c0.056,0.07,0.084,0.165,0.084,0.283
	c0,0.118-0.037,0.214-0.11,0.286s-0.176,0.108-0.307,0.108c-0.17,0-0.307-0.053-0.413-0.161c-0.106-0.107-0.186-0.273-0.24-0.497
	l-0.653,0.288c0.08,0.314,0.227,0.553,0.442,0.718C14.128,3.648,14.406,3.73,14.749,3.73L14.749,3.73z"/>
<path style="fill:#FFFFFF;" d="M18.388,0.24h-2.391v0.595h0.835v2.813h0.72V0.835h0.835V0.24z"/>
<path style="fill:#FFFFFF;" d="M20.17,3.649h0.73L19.934,0.24h-0.879l-0.965,3.409h0.73l0.192-0.792h0.965L20.17,3.649z
	 M19.142,2.329l0.264-1.071l0.019-0.096c0.032-0.138,0.053-0.247,0.062-0.327h0.014c0.013,0.083,0.04,0.224,0.082,0.422l0.264,1.071
	H19.142z"/>
<path style="fill:#FFFFFF;" d="M22.993,0.24h-2.391v0.595h0.835v2.813h0.72V0.835h0.835V0.24z"/>
<path style="fill:#FFFFFF;" d="M24.02,3.097V2.175h1.157V1.628H24.02V0.792h1.229V0.24h-1.954v3.409h1.988V3.097H24.02z"/>
<path style="fill:#FFFFFF;" d="M25.749,3.649h0.619V1.651c0-0.25-0.006-0.464-0.019-0.643h0.019c0.01,0.109,0.032,0.242,0.067,0.399
	l0.566,2.242h0.543l0.552-2.242c0.042-0.173,0.066-0.307,0.072-0.404h0.019c-0.013,0.189-0.019,0.405-0.019,0.648v1.997h0.639V0.24
	h-0.975l-0.48,1.891c-0.032,0.15-0.054,0.296-0.067,0.437h-0.014c-0.003-0.106-0.026-0.25-0.067-0.432L26.718,0.24h-0.97V3.649z"/>
<path style="fill:#FFFFFF;" d="M30.142,3.097V2.175h1.157V1.628h-1.157V0.792h1.229V0.24h-1.954v3.409h1.988V3.097H30.142z"/>
<path style="fill:#FFFFFF;" d="M31.851,3.649h0.687V1.872c0-0.202-0.003-0.421-0.01-0.658h0.01c0.035,0.214,0.093,0.405,0.173,0.571
	l0.912,1.863h0.749V0.24H33.69v1.661c0,0.304,0.003,0.531,0.01,0.682h-0.01c-0.035-0.214-0.091-0.403-0.168-0.567L32.662,0.24
	h-0.811V3.649z"/>
<path style="fill:#FFFFFF;" d="M37.046,0.24h-2.391v0.595h0.836v2.813h0.72V0.835h0.835V0.24z"/>
<path style="fill:#FFFFFF;" d="M38.851,4.211L40.205,0h-0.379l-1.354,4.211H38.851z"/>
<path style="fill:#FFFFFF;" d="M42.85,3.706c0.291,0,0.518-0.065,0.679-0.194c0.162-0.13,0.242-0.31,0.242-0.54
	c0-0.407-0.221-0.634-0.663-0.682l-0.384-0.043c-0.288-0.032-0.432-0.153-0.432-0.365c0-0.115,0.044-0.204,0.132-0.267
	c0.088-0.062,0.212-0.094,0.372-0.094c0.16,0,0.289,0.044,0.386,0.132c0.098,0.088,0.161,0.207,0.19,0.358l0.403-0.091
	c-0.026-0.221-0.126-0.398-0.3-0.53c-0.174-0.133-0.398-0.199-0.67-0.199c-0.282,0-0.504,0.064-0.667,0.192
	c-0.163,0.128-0.245,0.301-0.245,0.519c0,0.192,0.059,0.349,0.178,0.47c0.118,0.122,0.293,0.195,0.523,0.221l0.389,0.043
	c0.131,0.016,0.228,0.053,0.291,0.11c0.062,0.058,0.094,0.146,0.094,0.264c0,0.112-0.043,0.2-0.13,0.264
	c-0.087,0.064-0.21,0.096-0.37,0.096c-0.179,0-0.323-0.045-0.432-0.134c-0.109-0.09-0.179-0.222-0.211-0.399l-0.413,0.072
	c0.042,0.256,0.153,0.453,0.334,0.591C42.328,3.638,42.562,3.706,42.85,3.706L42.85,3.706z"/>
<path style="fill:#FFFFFF;" d="M44.401,4.585h0.408V3.27c0.058,0.125,0.15,0.229,0.279,0.312c0.128,0.083,0.28,0.125,0.456,0.125
	c0.192,0,0.363-0.052,0.514-0.156c0.15-0.104,0.268-0.25,0.353-0.439c0.085-0.189,0.127-0.41,0.127-0.663
	c0-0.25-0.04-0.47-0.12-0.66c-0.08-0.19-0.194-0.338-0.341-0.442c-0.147-0.104-0.317-0.156-0.509-0.156
	c-0.176,0-0.331,0.043-0.466,0.13c-0.134,0.087-0.24,0.211-0.317,0.374V1.248h-0.384V4.585z M45.448,3.346
	c-0.199,0-0.356-0.076-0.473-0.228c-0.117-0.152-0.175-0.358-0.175-0.617V2.386c0-0.259,0.06-0.463,0.18-0.612
	c0.12-0.149,0.281-0.223,0.483-0.223c0.202,0,0.359,0.079,0.473,0.238c0.114,0.158,0.17,0.378,0.17,0.66s-0.058,0.502-0.175,0.66
	C45.813,3.267,45.652,3.346,45.448,3.346L45.448,3.346z"/>
<path style="fill:#FFFFFF;" d="M47.541,1.796V1.248h-0.379v2.401h0.408V2.621c0-0.189,0.014-0.351,0.043-0.485
	c0.029-0.134,0.094-0.253,0.197-0.355c0.125-0.125,0.301-0.187,0.528-0.187h0.019V1.195c-0.019-0.003-0.048-0.005-0.086-0.005
	c-0.173,0-0.322,0.056-0.449,0.168C47.695,1.471,47.602,1.616,47.541,1.796L47.541,1.796z"/>
<path style="fill:#FFFFFF;" d="M48.861,3.649h0.408V1.248h-0.408V3.649z M48.832,0.802h0.466V0.288h-0.466V0.802z"/>
<path style="fill:#FFFFFF;" d="M50.109,3.649h0.408V2.396c0-0.266,0.058-0.474,0.173-0.627s0.272-0.228,0.471-0.228
	c0.352,0,0.528,0.213,0.528,0.639v1.469h0.408V2.155c0-0.32-0.067-0.562-0.202-0.727c-0.134-0.165-0.334-0.247-0.6-0.247
	c-0.378,0-0.645,0.181-0.802,0.543V1.248h-0.384V3.649z"/>
<path style="fill:#FFFFFF;" d="M54.709,1.21c0.051,0,0.109,0.006,0.173,0.019V0.874c-0.048-0.012-0.101-0.019-0.159-0.019
	c-0.154,0-0.278,0.04-0.372,0.12c-0.094,0.08-0.161,0.186-0.199,0.317c-0.144-0.067-0.301-0.101-0.471-0.101
	c-0.272,0-0.488,0.076-0.648,0.228c-0.16,0.152-0.24,0.347-0.24,0.583c0,0.24,0.078,0.435,0.235,0.586
	c-0.106,0.038-0.189,0.099-0.25,0.183c-0.061,0.083-0.091,0.182-0.091,0.298c0,0.195,0.093,0.335,0.278,0.418
	c-0.125,0.042-0.221,0.107-0.288,0.195c-0.067,0.088-0.101,0.19-0.101,0.305c0,0.195,0.082,0.354,0.247,0.475
	c0.165,0.122,0.442,0.182,0.833,0.182c0.403,0,0.702-0.068,0.898-0.204c0.195-0.136,0.293-0.323,0.293-0.559
	c0-0.218-0.069-0.385-0.207-0.502c-0.138-0.117-0.341-0.175-0.61-0.175h-0.586c-0.141,0-0.242-0.022-0.305-0.067
	c-0.062-0.045-0.094-0.104-0.094-0.178c0-0.054,0.016-0.102,0.048-0.142c0.032-0.04,0.074-0.071,0.125-0.094
	c0.141,0.067,0.294,0.101,0.461,0.101c0.182,0,0.34-0.036,0.473-0.108c0.133-0.072,0.235-0.17,0.307-0.293
	c0.072-0.123,0.108-0.263,0.108-0.42c0-0.231-0.074-0.419-0.221-0.567C54.407,1.285,54.527,1.21,54.709,1.21L54.709,1.21z
	 M53.681,2.511c-0.151,0-0.272-0.048-0.365-0.144c-0.093-0.096-0.139-0.218-0.139-0.365c0-0.147,0.046-0.267,0.137-0.36
	c0.091-0.093,0.214-0.139,0.367-0.139c0.15,0,0.272,0.047,0.365,0.142c0.093,0.094,0.139,0.215,0.139,0.362
	c0,0.147-0.046,0.268-0.139,0.362C53.953,2.464,53.832,2.511,53.681,2.511L53.681,2.511z M53.941,3.562
	c0.167,0,0.291,0.03,0.375,0.089c0.083,0.059,0.125,0.145,0.125,0.257c0,0.122-0.055,0.218-0.163,0.29
	c-0.109,0.072-0.299,0.108-0.571,0.108c-0.234,0-0.414-0.03-0.54-0.091c-0.127-0.061-0.19-0.162-0.19-0.302
	c0-0.074,0.022-0.143,0.065-0.207c0.043-0.064,0.106-0.115,0.19-0.154c0.083,0.006,0.15,0.01,0.202,0.01H53.941z"/>
<path style="fill:#FFFFFF;" d="M57.407,3.706c0.291,0,0.518-0.065,0.679-0.194c0.162-0.13,0.243-0.31,0.243-0.54
	c0-0.407-0.221-0.634-0.663-0.682l-0.384-0.043c-0.288-0.032-0.432-0.153-0.432-0.365c0-0.115,0.044-0.204,0.132-0.267
	c0.088-0.062,0.212-0.094,0.372-0.094c0.16,0,0.289,0.044,0.386,0.132c0.098,0.088,0.161,0.207,0.19,0.358l0.403-0.091
	c-0.026-0.221-0.126-0.398-0.3-0.53c-0.174-0.133-0.398-0.199-0.67-0.199c-0.282,0-0.504,0.064-0.667,0.192
	c-0.163,0.128-0.245,0.301-0.245,0.519c0,0.192,0.059,0.349,0.178,0.47c0.118,0.122,0.293,0.195,0.523,0.221l0.389,0.043
	c0.131,0.016,0.228,0.053,0.291,0.11c0.062,0.058,0.094,0.146,0.094,0.264c0,0.112-0.043,0.2-0.13,0.264
	c-0.087,0.064-0.21,0.096-0.37,0.096c-0.179,0-0.323-0.045-0.432-0.134c-0.109-0.09-0.179-0.222-0.211-0.399L56.37,2.909
	c0.042,0.256,0.153,0.453,0.334,0.591C56.885,3.638,57.119,3.706,57.407,3.706L57.407,3.706z"/>
<path style="fill:#FFFFFF;" d="M59.707,3.706c0.166,0,0.318-0.048,0.456-0.144c0.138-0.096,0.234-0.217,0.288-0.365v0.451h0.384
	V1.248h-0.408V2.54c0,0.243-0.059,0.44-0.178,0.591c-0.118,0.151-0.274,0.226-0.466,0.226c-0.157,0-0.278-0.054-0.362-0.161
	c-0.085-0.107-0.127-0.261-0.127-0.463V1.248h-0.408V2.78c0,0.298,0.065,0.527,0.194,0.687C59.21,3.626,59.419,3.706,59.707,3.706
	L59.707,3.706z"/>
<path style="fill:#FFFFFF;" d="M61.675,1.248v2.401h0.408V2.247c0-0.218,0.049-0.39,0.146-0.516c0.098-0.126,0.23-0.19,0.396-0.19
	c0.144,0,0.255,0.047,0.334,0.142c0.078,0.094,0.118,0.23,0.118,0.406v1.56h0.408V2.228c0-0.218,0.047-0.386,0.142-0.506
	c0.094-0.12,0.226-0.18,0.396-0.18c0.304,0,0.456,0.189,0.456,0.566v1.541h0.408V2.074c0-0.282-0.064-0.501-0.192-0.658
	c-0.128-0.157-0.307-0.235-0.538-0.235c-0.326,0-0.57,0.163-0.73,0.49c-0.055-0.16-0.14-0.282-0.257-0.365
	c-0.117-0.083-0.258-0.125-0.425-0.125c-0.323,0-0.552,0.162-0.686,0.485V1.248H61.675z"/>
<path style="fill:#FFFFFF;" d="M65.656,1.248v2.401h0.408V2.247c0-0.218,0.049-0.39,0.146-0.516c0.098-0.126,0.23-0.19,0.396-0.19
	c0.144,0,0.255,0.047,0.334,0.142c0.078,0.094,0.118,0.23,0.118,0.406v1.56h0.408V2.228c0-0.218,0.047-0.386,0.142-0.506
	c0.094-0.12,0.226-0.18,0.396-0.18c0.304,0,0.456,0.189,0.456,0.566v1.541h0.408V2.074c0-0.282-0.064-0.501-0.192-0.658
	c-0.128-0.157-0.307-0.235-0.538-0.235c-0.326,0-0.57,0.163-0.73,0.49c-0.054-0.16-0.14-0.282-0.257-0.365
	c-0.117-0.083-0.258-0.125-0.425-0.125c-0.323,0-0.552,0.162-0.686,0.485V1.248H65.656z"/>
<path style="fill:#FFFFFF;" d="M71.532,2.28c0-0.355-0.089-0.626-0.267-0.811c-0.178-0.186-0.43-0.278-0.756-0.278
	c-0.343,0-0.61,0.113-0.802,0.341c-0.192,0.227-0.288,0.543-0.288,0.946c0,0.394,0.096,0.697,0.288,0.91
	C69.9,3.6,70.169,3.706,70.514,3.706c0.243,0,0.451-0.057,0.622-0.17c0.171-0.114,0.298-0.279,0.382-0.497L71.182,2.89
	c-0.054,0.147-0.136,0.26-0.245,0.338c-0.109,0.079-0.24,0.118-0.394,0.118c-0.215,0-0.386-0.071-0.516-0.214
	c-0.13-0.143-0.196-0.331-0.199-0.564h1.704V2.28z M71.119,2.237h-1.292c0.006-0.227,0.068-0.405,0.185-0.533
	c0.117-0.128,0.279-0.192,0.487-0.192c0.198,0,0.351,0.058,0.459,0.173c0.107,0.115,0.161,0.282,0.161,0.499V2.237z"/>
<path style="fill:#FFFFFF;" d="M72.56,1.796V1.248H72.18v2.401h0.408V2.621c0-0.189,0.014-0.351,0.043-0.485
	c0.029-0.134,0.094-0.253,0.197-0.355c0.125-0.125,0.301-0.187,0.528-0.187h0.019V1.195c-0.019-0.003-0.048-0.005-0.086-0.005
	c-0.173,0-0.322,0.056-0.449,0.168C72.714,1.471,72.62,1.616,72.56,1.796L72.56,1.796z"/>
</svg>
