<?xml version="1.0" encoding="iso-8859-1"?>
<!-- Generator: Adobe Illustrator 22.0.1, SVG Export Plug-In . SVG Version: 6.00 Build 0)  -->
<svg version="1.1" id="Capa_1" xmlns="http://www.w3.org/2000/svg" xmlns:xlink="http://www.w3.org/1999/xlink" x="0px" y="0px"
	 viewBox="0 0 119.999 99.599" style="enable-background:new 0 0 119.999 99.599;" xml:space="preserve">
<path style="fill:#FFFFFF;" d="M0,16.131h8.665v-2.814H3.346V0.399H0V16.131z"/>
<path style="fill:#FFFFFF;" d="M15.357,16.507c2.024,0,3.571-0.661,4.643-1.983c1.071-1.322,1.607-3.408,1.607-6.259
	c0-2.851-0.536-4.941-1.607-6.271C18.929,0.665,17.381,0,15.357,0c-2.039,0-3.594,0.661-4.665,1.983
	C9.621,3.305,9.086,5.399,9.086,8.265c0,2.851,0.535,4.938,1.607,6.259C11.763,15.847,13.318,16.507,15.357,16.507L15.357,16.507z
	 M15.357,13.804c-0.916,0-1.599-0.413-2.05-1.241c-0.451-0.827-0.676-2.26-0.676-4.299c0-2.053,0.225-3.49,0.676-4.31
	c0.451-0.82,1.134-1.23,2.05-1.23c0.901,0,1.574,0.41,2.017,1.23c0.443,0.82,0.665,2.257,0.665,4.31
	c0,2.038-0.222,3.471-0.665,4.299C16.931,13.391,16.258,13.804,15.357,13.804L15.357,13.804z"/>
<path style="fill:#FFFFFF;" d="M29.141,16.507c2.024,0,3.571-0.661,4.643-1.983c1.071-1.322,1.607-3.408,1.607-6.259
	c0-2.851-0.536-4.941-1.607-6.271C32.712,0.665,31.165,0,29.141,0c-2.039,0-3.594,0.661-4.665,1.983
	c-1.071,1.322-1.607,3.416-1.607,6.282c0,2.851,0.535,4.938,1.607,6.259C25.547,15.847,27.102,16.507,29.141,16.507L29.141,16.507z
	 M29.141,13.804c-0.916,0-1.599-0.413-2.05-1.241c-0.451-0.827-0.676-2.26-0.676-4.299c0-2.053,0.225-3.49,0.676-4.31
	c0.45-0.82,1.134-1.23,2.05-1.23c0.901,0,1.573,0.41,2.017,1.23c0.443,0.82,0.665,2.257,0.665,4.31c0,2.038-0.222,3.471-0.665,4.299
	C30.714,13.391,30.042,13.804,29.141,13.804L29.141,13.804z"/>
<path style="fill:#FFFFFF;" d="M45.384,16.131h3.679l-4.432-9.395l4.166-6.337H45.14l-4.41,7.29v-7.29h-3.346v15.732h3.346v-4.653
	l1.529-2.415L45.384,16.131z"/>
<path style="fill:#FFFFFF;" d="M54.559,16.507c1.123,0,2.098-0.207,2.925-0.62c0.827-0.414,1.455-0.99,1.884-1.728
	c0.428-0.738,0.643-1.588,0.643-2.548c0-1.182-0.259-2.134-0.776-2.859c-0.517-0.723-1.36-1.285-2.526-1.684l-2.26-0.753
	c-1.212-0.414-1.817-1.1-1.817-2.061c0-0.502,0.17-0.905,0.51-1.208c0.34-0.303,0.798-0.454,1.374-0.454
	c0.694,0,1.285,0.233,1.773,0.698c0.487,0.465,0.842,1.171,1.064,2.116l2.792-1.396c-0.606-2.659-2.438-3.988-5.496-3.988
	c-1.581,0-2.859,0.41-3.834,1.23c-0.975,0.82-1.463,1.939-1.463,3.357c0,1.123,0.273,2.072,0.82,2.847
	c0.547,0.776,1.366,1.341,2.46,1.695l2.26,0.709c0.635,0.192,1.082,0.451,1.341,0.776c0.258,0.325,0.388,0.761,0.388,1.307
	c0,0.547-0.17,0.986-0.51,1.318c-0.34,0.332-0.813,0.498-1.418,0.498c-0.783,0-1.418-0.247-1.906-0.742
	c-0.488-0.495-0.857-1.259-1.108-2.293l-3.014,1.33c0.369,1.448,1.049,2.552,2.039,3.312C51.693,16.127,52.978,16.507,54.559,16.507
	L54.559,16.507z"/>
<path style="fill:#FFFFFF;" d="M66.348,16.131h2.859V6.913c0-1.152-0.03-2.142-0.089-2.969h0.089
	c0.044,0.502,0.147,1.115,0.31,1.839l2.615,10.348h2.504l2.549-10.348c0.192-0.798,0.303-1.418,0.332-1.861h0.089
	c-0.059,0.872-0.089,1.869-0.089,2.991v9.218h2.947V0.399h-4.499l-2.216,8.73c-0.148,0.695-0.252,1.367-0.31,2.016h-0.066
	c-0.015-0.487-0.118-1.152-0.31-1.994l-2.238-8.752h-4.477V16.131z"/>
<path style="fill:#FFFFFF;" d="M91.7,16.131h3.368L90.614,0.399h-4.055l-4.454,15.732h3.368l0.886-3.656h4.454L91.7,16.131z
	 M86.958,10.037l1.219-4.941l0.089-0.443c0.147-0.635,0.244-1.137,0.288-1.507h0.066c0.059,0.384,0.185,1.034,0.377,1.95
	l1.219,4.941H86.958z"/>
<path style="fill:#FFFFFF;" d="M96.62,16.131h5.075c2.127,0,3.764-0.639,4.909-1.917c1.145-1.278,1.717-3.269,1.717-5.972
	c0-2.673-0.569-4.649-1.706-5.927c-1.138-1.278-2.763-1.917-4.875-1.917H96.62V16.131z M100.054,13.627V2.902h1.662
	c1.049,0,1.817,0.41,2.305,1.23c0.488,0.819,0.731,2.19,0.731,4.11c0,1.743-0.259,3.076-0.776,3.999
	c-0.517,0.923-1.278,1.385-2.283,1.385H100.054z"/>
<path style="fill:#FFFFFF;" d="M113.661,13.583V9.328h5.341V6.802h-5.341V2.947h5.673V0.399h-9.019v15.732h9.174v-2.548H113.661z"/>
<path style="fill:#FFFFFF;" d="M76.52,19.587v-2.57H67.5v15.732h3.346v-6.736h5.341v-2.548h-5.341v-3.878H76.52z"/>
<path style="fill:#FFFFFF;" d="M85.716,32.749h3.679l-2.837-6.847c0.812-0.325,1.437-0.845,1.872-1.562
	c0.436-0.716,0.654-1.584,0.654-2.604c0-1.507-0.432-2.67-1.296-3.49c-0.864-0.82-2.183-1.23-3.956-1.23h-5.607v15.732h3.435v-6.226
	h1.729L85.716,32.749z M81.661,24.285v-4.897h1.662c0.754,0,1.3,0.192,1.64,0.576c0.34,0.384,0.51,0.975,0.51,1.773
	c0,1.699-0.717,2.548-2.15,2.548H81.661z"/>
<path style="fill:#FFFFFF;" d="M96.464,33.126c2.024,0,3.571-0.661,4.643-1.983c1.071-1.322,1.607-3.408,1.607-6.26
	c0-2.851-0.536-4.941-1.607-6.271c-1.071-1.33-2.619-1.994-4.643-1.994c-2.039,0-3.594,0.661-4.665,1.983
	c-1.071,1.322-1.607,3.416-1.607,6.281c0,2.851,0.535,4.938,1.607,6.26C92.87,32.465,94.426,33.126,96.464,33.126L96.464,33.126z
	 M96.464,30.422c-0.916,0-1.599-0.413-2.05-1.241c-0.451-0.827-0.676-2.26-0.676-4.299c0-2.053,0.225-3.49,0.676-4.31
	c0.451-0.82,1.134-1.23,2.05-1.23c0.901,0,1.573,0.41,2.017,1.23c0.443,0.82,0.665,2.257,0.665,4.31
	c0,2.038-0.222,3.472-0.665,4.299C98.038,30.009,97.365,30.422,96.464,30.422L96.464,30.422z"/>
<path style="fill:#FFFFFF;" d="M104.708,32.749h2.859v-9.218c0-1.152-0.03-2.142-0.089-2.969h0.089
	c0.044,0.502,0.147,1.115,0.31,1.839l2.615,10.348h2.504l2.549-10.348c0.192-0.798,0.303-1.418,0.332-1.861h0.089
	c-0.059,0.872-0.089,1.869-0.089,2.991v9.218h2.947V17.017h-4.499l-2.216,8.73c-0.148,0.694-0.251,1.366-0.31,2.016h-0.066
	c-0.015-0.487-0.118-1.152-0.31-1.994l-2.238-8.752h-4.477V32.749z"/>
<path style="fill:#FFFFFF;" d="M10.017,49.367h3.679l-2.837-6.847c0.812-0.325,1.437-0.845,1.873-1.562
	c0.436-0.716,0.654-1.584,0.654-2.604c0-1.507-0.432-2.67-1.296-3.49c-0.864-0.82-2.183-1.23-3.956-1.23H2.526v15.732h3.435v-6.226
	H7.69L10.017,49.367z M5.961,40.903v-4.897h1.662c0.753,0,1.3,0.192,1.64,0.576c0.34,0.384,0.51,0.975,0.51,1.773
	c0,1.699-0.717,2.548-2.15,2.548H5.961z"/>
<path style="fill:#FFFFFF;" d="M18.859,46.819v-4.254h5.341v-2.526h-5.341v-3.855h5.673v-2.548h-9.019v15.732h9.174v-2.548H18.859z"
	/>
<path style="fill:#FFFFFF;" d="M35.856,36.206v-2.57h-9.019v15.732h3.346v-6.736h5.341v-2.548h-5.341v-3.877H35.856z"/>
<path style="fill:#FFFFFF;" d="M45.052,49.367h3.679l-2.837-6.847c0.812-0.325,1.437-0.845,1.873-1.562
	c0.436-0.716,0.654-1.584,0.654-2.604c0-1.507-0.432-2.67-1.296-3.49c-0.864-0.82-2.183-1.23-3.956-1.23h-5.607v15.732h3.435v-6.226
	h1.729L45.052,49.367z M40.997,40.903v-4.897h1.662c0.753,0,1.3,0.192,1.64,0.576c0.34,0.384,0.51,0.975,0.51,1.773
	c0,1.699-0.717,2.548-2.149,2.548H40.997z"/>
<path style="fill:#FFFFFF;" d="M53.894,46.819v-4.254h5.341v-2.526h-5.341v-3.855h5.673v-2.548h-9.019v15.732h9.175v-2.548H53.894z"
	/>
<path style="fill:#FFFFFF;" d="M66.216,49.744c1.123,0,2.098-0.207,2.925-0.62c0.827-0.413,1.455-0.99,1.884-1.729
	c0.428-0.738,0.643-1.588,0.643-2.548c0-1.182-0.259-2.134-0.776-2.858c-0.517-0.724-1.359-1.285-2.526-1.684l-2.26-0.753
	c-1.212-0.413-1.817-1.1-1.817-2.061c0-0.502,0.17-0.905,0.51-1.208c0.34-0.303,0.798-0.454,1.374-0.454
	c0.694,0,1.285,0.233,1.773,0.698c0.488,0.465,0.842,1.171,1.064,2.116l2.792-1.396c-0.606-2.659-2.438-3.988-5.496-3.988
	c-1.581,0-2.859,0.41-3.834,1.23c-0.975,0.82-1.463,1.939-1.463,3.357c0,1.123,0.273,2.072,0.82,2.847
	c0.546,0.775,1.366,1.34,2.46,1.695l2.26,0.709c0.635,0.192,1.082,0.451,1.341,0.776c0.258,0.325,0.388,0.761,0.388,1.307
	c0,0.547-0.17,0.986-0.51,1.318c-0.34,0.332-0.813,0.499-1.418,0.499c-0.783,0-1.418-0.247-1.906-0.742
	c-0.488-0.495-0.857-1.259-1.108-2.293l-3.014,1.329c0.369,1.448,1.049,2.552,2.039,3.313
	C63.349,49.364,64.635,49.744,66.216,49.744L66.216,49.744z"/>
<path style="fill:#FFFFFF;" d="M84.83,33.635h-3.346v6.448H76.83v-6.448h-3.346v15.732h3.346v-6.714h4.654v6.714h3.346V33.635z"/>
<path style="fill:#FFFFFF;" d="M90.991,49.367V33.635h-3.346v15.732H90.991z"/>
<path style="fill:#FFFFFF;" d="M93.717,49.367h3.169v-8.198c0-0.931-0.015-1.942-0.044-3.035h0.044
	c0.162,0.99,0.428,1.869,0.798,2.637l4.21,8.597h3.457V33.635h-3.147v7.667c0,1.404,0.015,2.452,0.044,3.146h-0.044
	c-0.163-0.99-0.421-1.861-0.776-2.615l-3.967-8.198h-3.745V49.367z"/>
<path style="fill:#FFFFFF;" d="M112.664,49.744c0.99,0,1.821-0.244,2.493-0.731c0.672-0.488,1.148-1.174,1.429-2.061l0.133,2.415
	h2.504v-8.73h-5.983v2.57h2.704v0.399c0,1.094-0.199,1.947-0.598,2.559c-0.399,0.613-0.997,0.92-1.795,0.92
	c-0.635,0-1.152-0.181-1.551-0.543c-0.399-0.362-0.694-0.96-0.886-1.795c-0.192-0.834-0.288-1.968-0.288-3.401
	c0-1.994,0.218-3.408,0.654-4.243c0.436-0.834,1.104-1.252,2.006-1.252c0.739,0,1.293,0.248,1.662,0.743
	c0.369,0.495,0.591,1.245,0.665,2.249l3.391-0.643c-0.118-1.581-0.661-2.799-1.629-3.656c-0.968-0.857-2.316-1.285-4.044-1.285
	c-2.024,0-3.576,0.665-4.654,1.994c-1.079,1.329-1.618,3.361-1.618,6.093C107.256,46.945,109.059,49.744,112.664,49.744
	L112.664,49.744z"/>
<path style="fill:#FFFFFF;" d="M53.207,50.254h-3.346v6.448h-4.654v-6.448h-3.346v15.732h3.346v-6.713h4.654v6.713h3.346V50.254z"/>
<path style="fill:#FFFFFF;" d="M55.822,50.254v10.946c0,1.595,0.491,2.855,1.474,3.778c0.982,0.923,2.36,1.385,4.133,1.385
	c1.773,0,3.154-0.462,4.144-1.385c0.99-0.923,1.485-2.183,1.485-3.778V50.254h-3.324v10.813c0,0.783-0.203,1.396-0.609,1.839
	c-0.406,0.443-0.972,0.664-1.695,0.664c-0.724,0-1.285-0.221-1.684-0.664c-0.399-0.443-0.598-1.056-0.598-1.839V50.254H55.822z"/>
<path style="fill:#FFFFFF;" d="M73.019,63.437v-4.254h5.341v-2.526h-5.341v-3.855h5.673v-2.548h-9.019v15.732h9.174v-2.548H73.019z"
	/>
<path style="fill:#FFFFFF;" d="M85.34,66.362c1.123,0,2.098-0.207,2.925-0.62c0.827-0.413,1.455-0.99,1.884-1.728
	c0.428-0.738,0.643-1.588,0.643-2.548c0-1.181-0.259-2.134-0.776-2.858c-0.517-0.724-1.359-1.285-2.526-1.684l-2.26-0.753
	c-1.212-0.413-1.817-1.1-1.817-2.061c0-0.502,0.17-0.904,0.51-1.208c0.34-0.303,0.798-0.454,1.374-0.454
	c0.694,0,1.285,0.233,1.773,0.698c0.488,0.465,0.842,1.171,1.064,2.116l2.792-1.396c-0.606-2.659-2.438-3.989-5.496-3.989
	c-1.581,0-2.859,0.41-3.834,1.23c-0.975,0.82-1.463,1.939-1.463,3.357c0,1.123,0.273,2.072,0.82,2.847
	c0.546,0.776,1.366,1.341,2.46,1.695l2.26,0.709c0.635,0.192,1.082,0.451,1.341,0.776c0.258,0.325,0.388,0.761,0.388,1.307
	c0,0.547-0.17,0.986-0.51,1.318c-0.34,0.332-0.813,0.498-1.418,0.498c-0.783,0-1.418-0.247-1.906-0.742
	c-0.488-0.495-0.857-1.259-1.108-2.293l-3.014,1.329c0.369,1.448,1.049,2.552,2.039,3.313C82.474,65.982,83.759,66.362,85.34,66.362
	L85.34,66.362z"/>
<path style="fill:#FFFFFF;" d="M102.581,66.362c2.024,0,3.571-0.661,4.643-1.983c1.071-1.322,1.607-3.408,1.607-6.259
	c0-2.851-0.536-4.941-1.607-6.271c-1.071-1.329-2.619-1.994-4.643-1.994c-2.039,0-3.594,0.661-4.665,1.983
	c-1.071,1.322-1.607,3.416-1.607,6.282c0,2.851,0.535,4.938,1.607,6.259C98.987,65.701,100.542,66.362,102.581,66.362
	L102.581,66.362z M102.581,63.659c-0.916,0-1.599-0.413-2.05-1.241c-0.451-0.827-0.676-2.26-0.676-4.299
	c0-2.053,0.225-3.49,0.676-4.31c0.45-0.82,1.134-1.23,2.05-1.23c0.901,0,1.573,0.41,2.017,1.23c0.443,0.82,0.665,2.257,0.665,4.31
	c0,2.039-0.222,3.471-0.665,4.299C104.154,63.246,103.482,63.659,102.581,63.659L102.581,63.659z"/>
<path style="fill:#FFFFFF;" d="M119.844,52.824v-2.57h-9.019v15.732h3.346V59.25h5.341v-2.548h-5.341v-3.878H119.844z"/>
<path style="fill:#FFFFFF;" d="M13.097,74.339c0.798-0.207,1.414-0.602,1.85-1.185c0.436-0.583,0.654-1.281,0.654-2.094
	c0-1.27-0.407-2.285-1.219-3.047c-0.813-0.76-2.009-1.141-3.59-1.141h-5.74v15.732h5.939c1.596,0,2.811-0.402,3.645-1.207
	c0.835-0.805,1.252-1.887,1.252-3.246c0-1.034-0.24-1.876-0.72-2.526C14.689,74.974,13.998,74.546,13.097,74.339L13.097,74.339z
	 M10.039,69.243c0.679,0,1.182,0.181,1.507,0.543c0.325,0.362,0.488,0.861,0.488,1.496c0,1.448-0.658,2.171-1.972,2.171H8.488v-4.21
	H10.039z M10.216,80.233H8.488v-4.565h1.751c1.374,0,2.061,0.768,2.061,2.305c0,0.709-0.17,1.263-0.51,1.662
	C11.45,80.033,10.925,80.233,10.216,80.233L10.216,80.233z"/>
<path style="fill:#FFFFFF;" d="M25.241,82.604h3.679l-2.837-6.847c0.812-0.325,1.437-0.845,1.872-1.562
	c0.436-0.716,0.654-1.584,0.654-2.604c0-1.507-0.432-2.67-1.296-3.49c-0.864-0.82-2.183-1.23-3.956-1.23h-5.607v15.732h3.435v-6.226
	h1.729L25.241,82.604z M21.186,74.139v-4.897h1.662c0.753,0,1.3,0.192,1.64,0.576c0.34,0.384,0.51,0.975,0.51,1.772
	c0,1.699-0.717,2.548-2.15,2.548H21.186z"/>
<path style="fill:#FFFFFF;" d="M35.989,82.98c2.024,0,3.571-0.661,4.643-1.983c1.071-1.322,1.607-3.409,1.607-6.26
	c0-2.851-0.536-4.941-1.607-6.271c-1.071-1.329-2.619-1.994-4.643-1.994c-2.039,0-3.594,0.661-4.665,1.983
	c-1.071,1.322-1.607,3.416-1.607,6.282c0,2.851,0.535,4.938,1.607,6.26C32.395,82.319,33.95,82.98,35.989,82.98L35.989,82.98z
	 M35.989,80.277c-0.916,0-1.599-0.413-2.05-1.241c-0.451-0.827-0.676-2.26-0.676-4.299c0-2.053,0.225-3.49,0.676-4.31
	c0.451-0.82,1.134-1.23,2.05-1.23c0.901,0,1.573,0.41,2.017,1.23c0.443,0.82,0.665,2.257,0.665,4.31
	c0,2.039-0.222,3.471-0.665,4.299C37.562,79.864,36.89,80.277,35.989,80.277L35.989,80.277z"/>
<path style="fill:#FFFFFF;" d="M45.54,82.604h3.789l1.751-9.705c0.059-0.443,0.103-1.027,0.133-1.75h0.089l0.044,0.576
	c0,0.384,0.029,0.776,0.089,1.174l1.773,9.705h3.79l2.77-15.732h-3.191l-1.507,10.104c-0.044,0.354-0.081,0.945-0.111,1.773h-0.067
	l-0.066-0.554c-0.015-0.118-0.03-0.266-0.044-0.443c-0.015-0.177-0.044-0.384-0.089-0.62l-1.839-10.259h-3.169l-1.839,10.259
	c-0.089,0.606-0.155,1.145-0.199,1.618h-0.089c0-0.546-0.037-1.137-0.111-1.773l-1.485-10.104H42.77L45.54,82.604z"/>
<path style="fill:#FFFFFF;" d="M61.451,82.604h3.169v-8.198c0-0.93-0.015-1.942-0.044-3.035h0.044
	c0.162,0.99,0.428,1.869,0.798,2.637l4.211,8.597h3.457V66.872h-3.147v7.666c0,1.403,0.015,2.452,0.044,3.146h-0.044
	c-0.163-0.989-0.421-1.861-0.775-2.615l-3.967-8.198h-3.745V82.604z"/>
<path style="fill:#FFFFFF;" d="M88.753,82.604h3.368l-4.454-15.732h-4.055l-4.454,15.732h3.368l0.886-3.656h4.454L88.753,82.604z
	 M84.01,76.51l1.219-4.941l0.089-0.443c0.147-0.635,0.244-1.137,0.288-1.507h0.066c0.059,0.384,0.185,1.034,0.377,1.95l1.219,4.941
	H84.01z"/>
<path style="fill:#FFFFFF;" d="M93.672,82.604h3.169v-8.198c0-0.93-0.015-1.942-0.044-3.035h0.044
	c0.162,0.99,0.428,1.869,0.798,2.637l4.211,8.597h3.457V66.872h-3.147v7.666c0,1.403,0.015,2.452,0.044,3.146h-0.044
	c-0.163-0.989-0.421-1.861-0.776-2.615l-3.967-8.198h-3.745V82.604z"/>
<path style="fill:#FFFFFF;" d="M107.943,82.604h5.075c2.128,0,3.764-0.639,4.909-1.917c1.145-1.277,1.717-3.268,1.717-5.971
	c0-2.674-0.569-4.649-1.706-5.927c-1.138-1.277-2.763-1.917-4.875-1.917h-5.119V82.604z M111.378,80.1V69.376h1.662
	c1.049,0,1.817,0.41,2.305,1.23c0.488,0.82,0.731,2.19,0.731,4.11c0,1.743-0.259,3.076-0.776,3.999
	c-0.517,0.923-1.278,1.385-2.283,1.385H111.378z"/>
<path style="fill:#FFFFFF;" d="M62.204,99.599c1.669,0,3.006-0.488,4.011-1.463c1.005-0.975,1.574-2.385,1.706-4.232l-3.391-0.731
	c-0.074,1.3-0.303,2.234-0.687,2.803c-0.384,0.569-0.924,0.853-1.618,0.853c-0.901,0-1.566-0.41-1.994-1.23
	c-0.429-0.82-0.643-2.241-0.643-4.265c0-2.009,0.222-3.423,0.665-4.243c0.443-0.82,1.093-1.23,1.95-1.23
	c0.753,0,1.307,0.262,1.662,0.787c0.355,0.525,0.561,1.473,0.62,2.847l3.413-0.62c-0.044-1.891-0.562-3.324-1.551-4.299
	c-0.99-0.975-2.364-1.462-4.122-1.462c-1.994,0-3.52,0.642-4.576,1.928c-1.056,1.285-1.584,3.39-1.584,6.315
	c0,2.038,0.229,3.66,0.687,4.864c0.458,1.204,1.138,2.068,2.039,2.592C59.693,99.336,60.83,99.599,62.204,99.599L62.204,99.599z"/>
<path style="fill:#FFFFFF;" d="M78.071,99.222h3.368L76.985,83.49H72.93l-4.454,15.732h3.368l0.886-3.656h4.454L78.071,99.222z
	 M73.329,93.129l1.219-4.941l0.089-0.443c0.147-0.635,0.244-1.137,0.288-1.507h0.066c0.059,0.384,0.185,1.034,0.377,1.95
	l1.219,4.941H73.329z"/>
<path style="fill:#FFFFFF;" d="M83.079,99.222h2.859v-9.218c0-1.152-0.03-2.141-0.089-2.969h0.089
	c0.044,0.502,0.147,1.115,0.31,1.839l2.615,10.348h2.504l2.549-10.348c0.192-0.798,0.303-1.418,0.332-1.861h0.089
	c-0.059,0.872-0.089,1.869-0.089,2.991v9.218h2.947V83.49h-4.499l-2.216,8.73c-0.148,0.694-0.251,1.367-0.31,2.016h-0.066
	c-0.015-0.487-0.118-1.152-0.31-1.994l-2.238-8.752h-4.476V99.222z"/>
<path style="fill:#FFFFFF;" d="M103.356,96.674V92.42h5.341v-2.526h-5.341v-3.855h5.673V83.49h-9.019v15.732h9.175v-2.548H103.356z"
	/>
<path style="fill:#FFFFFF;" d="M111.334,99.222h8.665v-2.814h-5.318V83.49h-3.346V99.222z"/>
</svg>
