<?xml version="1.0" encoding="iso-8859-1"?>
<!-- Generator: Adobe Illustrator 22.0.1, SVG Export Plug-In . SVG Version: 6.00 Build 0)  -->
<svg version="1.1" id="Capa_1" xmlns="http://www.w3.org/2000/svg" xmlns:xlink="http://www.w3.org/1999/xlink" x="0px" y="0px"
	 viewBox="0 0 85.183 38.185" style="enable-background:new 0 0 85.183 38.185;" xml:space="preserve">
<path style="fill:#FFFFFF;" d="M6.641,18.572c1.265,0,2.363-0.233,3.295-0.699c0.932-0.466,1.639-1.115,2.122-1.947
	c0.483-0.832,0.724-1.789,0.724-2.871c0-1.331-0.291-2.405-0.874-3.22c-0.583-0.815-1.531-1.448-2.846-1.897L6.516,7.089
	C5.151,6.624,4.469,5.85,4.469,4.768c0-0.566,0.191-1.019,0.574-1.361c0.383-0.341,0.899-0.512,1.548-0.512
	c0.782,0,1.448,0.262,1.997,0.786c0.549,0.524,0.949,1.319,1.198,2.384l3.146-1.573C12.25,1.498,10.186,0,6.741,0
	C4.96,0,3.52,0.462,2.422,1.385C1.323,2.309,0.774,3.57,0.774,5.167c0,1.265,0.308,2.334,0.924,3.208
	c0.615,0.874,1.539,1.51,2.771,1.91l2.547,0.799c0.715,0.217,1.219,0.508,1.51,0.874c0.291,0.366,0.437,0.857,0.437,1.473
	c0,0.616-0.191,1.111-0.574,1.485c-0.383,0.374-0.916,0.562-1.598,0.562c-0.882,0-1.598-0.279-2.147-0.836
	c-0.549-0.557-0.965-1.418-1.248-2.583L0,13.555c0.416,1.631,1.182,2.875,2.297,3.732C3.412,18.144,4.86,18.572,6.641,18.572
	L6.641,18.572z"/>
<path style="fill:#FFFFFF;" d="M27.612,0.424h-3.77v7.264h-5.243V0.424h-3.77v17.724h3.77v-7.564h5.243v7.564h3.77V0.424z"/>
<path style="fill:#FFFFFF;" d="M40.27,18.148h3.795L39.046,0.424h-4.569l-5.018,17.724h3.795l0.999-4.119h5.018L40.27,18.148z
	 M34.927,11.283L36.3,5.716l0.1-0.499c0.166-0.715,0.275-1.281,0.325-1.698h0.075c0.066,0.433,0.208,1.165,0.424,2.197l1.373,5.567
	H34.927z"/>
<path style="fill:#FFFFFF;" d="M45.812,18.148h5.717c2.397,0,4.24-0.72,5.53-2.159c1.29-1.439,1.935-3.682,1.935-6.727
	c0-3.012-0.641-5.238-1.922-6.678c-1.282-1.439-3.112-2.159-5.493-2.159h-5.767V18.148z M49.681,15.327V3.245h1.873
	c1.181,0,2.047,0.462,2.596,1.386c0.549,0.924,0.824,2.467,0.824,4.631c0,1.964-0.291,3.466-0.874,4.506
	c-0.583,1.04-1.44,1.56-2.571,1.56H49.681z"/>
<path style="fill:#FFFFFF;" d="M65.01,15.277v-4.793h6.017V7.639H65.01V3.295h6.391V0.424H61.24v17.724h10.336v-2.871H65.01z"/>
<path style="fill:#FFFFFF;" d="M78.891,18.572c1.265,0,2.363-0.233,3.296-0.699c0.932-0.466,1.639-1.115,2.122-1.947
	c0.482-0.832,0.724-1.789,0.724-2.871c0-1.331-0.291-2.405-0.874-3.22c-0.583-0.815-1.531-1.448-2.846-1.897l-2.547-0.849
	c-1.365-0.466-2.047-1.24-2.047-2.322c0-0.566,0.191-1.019,0.574-1.361c0.383-0.341,0.899-0.512,1.548-0.512
	c0.782,0,1.448,0.262,1.997,0.786c0.549,0.524,0.949,1.319,1.198,2.384l3.146-1.573C84.5,1.498,82.436,0,78.991,0
	c-1.781,0-3.221,0.462-4.319,1.385c-1.098,0.924-1.648,2.184-1.648,3.782c0,1.265,0.308,2.334,0.924,3.208
	c0.616,0.874,1.539,1.51,2.771,1.91l2.547,0.799c0.715,0.217,1.219,0.508,1.51,0.874c0.291,0.366,0.437,0.857,0.437,1.473
	c0,0.616-0.191,1.111-0.574,1.485c-0.383,0.374-0.916,0.562-1.598,0.562c-0.882,0-1.598-0.279-2.147-0.836
	c-0.549-0.557-0.965-1.418-1.248-2.583l-3.395,1.498c0.416,1.631,1.182,2.875,2.297,3.732C75.662,18.144,77.11,18.572,78.891,18.572
	L78.891,18.572z"/>
<path style="fill:#FFFFFF;" d="M10.21,28.295c1.894,0,2.975-1.259,2.975-4.156c0-2.896-1.081-4.144-2.975-4.144
	c-1.905,0-2.986,1.248-2.986,4.144C7.224,27.036,8.304,28.295,10.21,28.295z M10.21,27.225c-1.036,0-1.627-0.824-1.627-3.086
	c0-2.25,0.59-3.086,1.627-3.086s1.605,0.836,1.605,3.086C11.814,26.401,11.246,27.225,10.21,27.225z"/>
<path style="fill:#FFFFFF;" d="M18.588,21.243v-1.047h-4.234v7.91h1.304v-3.521h2.752v-1.036h-2.752v-2.306H18.588z"/>
<path style="fill:#FFFFFF;" d="M34.004,28.449c0.899-0.233,1.594-0.678,2.085-1.335c0.491-0.657,0.736-1.443,0.736-2.359
	c0-1.431-0.458-2.575-1.373-3.432c-0.916-0.857-2.264-1.286-4.044-1.286h-6.466V37.76h6.691c1.797,0,3.166-0.453,4.107-1.361
	c0.94-0.907,1.41-2.126,1.41-3.657c0-1.165-0.271-2.113-0.811-2.846C35.797,29.165,35.019,28.683,34.004,28.449L34.004,28.449z
	 M30.559,22.708c0.765,0,1.331,0.204,1.698,0.612c0.366,0.408,0.549,0.97,0.549,1.685c0,1.631-0.741,2.446-2.222,2.446h-1.772
	v-4.743H30.559z M30.758,35.089h-1.947v-5.142h1.972c1.548,0,2.322,0.865,2.322,2.596c0,0.799-0.192,1.423-0.574,1.872
	C32.148,34.865,31.557,35.089,30.758,35.089L30.758,35.089z"/>
<path style="fill:#FFFFFF;" d="M43.116,34.89v-4.793h6.017v-2.846h-6.017v-4.344h6.391v-2.871H39.346V37.76h10.336V34.89H43.116z"/>
<path style="fill:#FFFFFF;" d="M55.873,37.76V20.037h-3.77V37.76H55.873z"/>
<path style="fill:#FFFFFF;" d="M64.212,38.185c1.115,0,2.051-0.275,2.809-0.824c0.757-0.549,1.294-1.323,1.61-2.322l0.15,2.721
	h2.821v-9.835h-6.741v2.896h3.046v0.449c0,1.232-0.225,2.193-0.674,2.883c-0.449,0.691-1.123,1.036-2.022,1.036
	c-0.716,0-1.298-0.204-1.748-0.612c-0.449-0.407-0.783-1.081-0.999-2.022c-0.216-0.94-0.325-2.217-0.325-3.832
	c0-2.247,0.245-3.84,0.736-4.78c0.491-0.94,1.244-1.41,2.259-1.41c0.832,0,1.456,0.279,1.872,0.836
	c0.416,0.558,0.665,1.402,0.749,2.534l3.82-0.724c-0.133-1.781-0.745-3.153-1.835-4.119c-1.09-0.965-2.609-1.448-4.556-1.448
	c-2.281,0-4.028,0.749-5.243,2.247c-1.215,1.498-1.823,3.786-1.823,6.865C58.12,35.031,60.151,38.185,64.212,38.185L64.212,38.185z"
	/>
<path style="fill:#FFFFFF;" d="M78.092,34.89v-4.793h6.017v-2.846h-6.017v-4.344h6.391v-2.871H74.323V37.76h10.336V34.89H78.092z"/>
</svg>
